<?xml version="1.0" encoding="UTF-8" standalone="no"?>
<!-- Created with Inkscape (http://www.inkscape.org/) -->

<svg
   xmlns:dc="http://purl.org/dc/elements/1.1/"
   xmlns:cc="http://creativecommons.org/ns#"
   xmlns:rdf="http://www.w3.org/1999/02/22-rdf-syntax-ns#"
   xmlns:svg="http://www.w3.org/2000/svg"
   xmlns="http://www.w3.org/2000/svg"
   xmlns:sodipodi="http://sodipodi.sourceforge.net/DTD/sodipodi-0.dtd"
   xmlns:inkscape="http://www.inkscape.org/namespaces/inkscape"
   width="15px"
   height="15px"
   viewBox="0 0 8.4666662 8.4666662"
   version="1.1"
   id="svg2004"
   inkscape:version="0.92.3 (2405546, 2018-03-11)"
   sodipodi:docname="icon2.svg">
  <defs
     id="defs1998" />
  <sodipodi:namedview
     id="base"
     pagecolor="#ffffff"
     bordercolor="#666666"
     borderopacity="1.0"
     inkscape:pageopacity="0.0"
     inkscape:pageshadow="2"
     inkscape:zoom="11.2"
     inkscape:cx="5.4761128"
     inkscape:cy="25.639148"
     inkscape:document-units="mm"
     inkscape:current-layer="layer1"
     showgrid="false"
     inkscape:snap-bbox="true"
     inkscape:snap-bbox-midpoints="true"
     inkscape:window-width="1920"
     inkscape:window-height="1027"
     inkscape:window-x="1912"
     inkscape:window-y="-8"
     inkscape:window-maximized="1" />
  <metadata
     id="metadata2001">
    <rdf:RDF>
      <cc:Work
         rdf:about="">
        <dc:format>image/svg+xml</dc:format>
        <dc:type
           rdf:resource="http://purl.org/dc/dcmitype/StillImage" />
        <dc:title></dc:title>
      </cc:Work>
    </rdf:RDF>
  </metadata>
  <g opacity="0.8"
     inkscape:label="Layer 1"
     inkscape:groupmode="layer"
     id="layer1"
     transform="translate(-90.638691,-139.6863)">
    <path
       style="opacity:1;fill:#2da18a;fill-opacity:1;fill-rule:evenodd;stroke:none;stroke-width:1284.27697754;stroke-linecap:round;stroke-linejoin:round;stroke-miterlimit:4;stroke-dasharray:none;stroke-dashoffset:0;stroke-opacity:1"
       d="M 16 0 A 15.999999 15.999999 0 0 0 0 16 A 15.999999 15.999999 0 0 0 16 32 A 15.999999 15.999999 0 0 0 32 16 A 15.999999 15.999999 0 0 0 16 0 z M 16.013672 5.1777344 A 1.1802207 1.1802207 0 0 1 16.576172 5.3359375 L 26.126953 10.853516 A 1.1802207 1.1802207 0 0 1 26.189453 10.888672 A 1.1802207 1.1802207 0 0 1 26.267578 10.9375 A 1.1802207 1.1802207 0 0 1 26.275391 10.943359 A 1.1802207 1.1802207 0 0 1 26.324219 10.980469 A 1.1802207 1.1802207 0 0 1 26.367188 11.013672 A 1.1802207 1.1802207 0 0 1 26.382812 11.027344 A 1.1802207 1.1802207 0 0 1 26.443359 11.087891 A 1.1802207 1.1802207 0 0 1 26.451172 11.095703 A 1.1802207 1.1802207 0 0 1 26.494141 11.144531 A 1.1802207 1.1802207 0 0 1 26.529297 11.185547 A 1.1802207 1.1802207 0 0 1 26.541016 11.205078 A 1.1802207 1.1802207 0 0 1 26.591797 11.28125 A 1.1802207 1.1802207 0 0 0 26.59375 11.283203 A 1.1802207 1.1802207 0 0 1 26.626953 11.335938 A 1.1802207 1.1802207 0 0 1 26.652344 11.386719 A 1.1802207 1.1802207 0 0 1 26.664062 11.414062 A 1.1802207 1.1802207 0 0 1 26.693359 11.484375 A 1.1802207 1.1802207 0 0 1 26.697266 11.496094 A 1.1802207 1.1802207 0 0 1 26.701172 11.505859 A 1.1802207 1.1802207 0 0 1 26.732422 11.609375 A 1.1802207 1.1802207 0 0 1 26.755859 11.724609 A 1.1802207 1.1802207 0 0 1 26.769531 11.837891 A 1.1802207 1.1802207 0 0 1 26.769531 11.841797 A 1.1802207 1.1802207 0 0 1 26.769531 11.847656 A 1.1802207 1.1802207 0 0 1 26.771484 11.904297 L 26.771484 20.113281 A 1.1802207 1.1802207 0 0 1 26.183594 21.132812 L 16.605469 26.664062 A 1.1802207 1.1802207 0 0 1 16.558594 26.689453 A 1.1802207 1.1802207 0 0 1 16.507812 26.712891 A 1.1802207 1.1802207 0 0 1 16.410156 26.753906 A 1.1802207 1.1802207 0 0 1 16.396484 26.757812 A 1.1802207 1.1802207 0 0 1 16.292969 26.787109 A 1.1802207 1.1802207 0 0 1 16.283203 26.791016 A 1.1802207 1.1802207 0 0 1 16.173828 26.808594 A 1.1802207 1.1802207 0 0 1 16.166016 26.810547 A 1.1802207 1.1802207 0 0 1 16.072266 26.818359 A 1.1802207 1.1802207 0 0 1 16.019531 26.822266 A 1.1802207 1.1802207 0 0 1 15.931641 26.818359 A 1.1802207 1.1802207 0 0 1 15.916016 26.816406 A 1.1802207 1.1802207 0 0 1 15.730469 26.785156 A 1.1802207 1.1802207 0 0 1 15.65625 26.765625 A 1.1802207 1.1802207 0 0 1 15.587891 26.742188 A 1.1802207 1.1802207 0 0 1 15.566406 26.734375 A 1.1802207 1.1802207 0 0 1 15.423828 26.664062 L 5.8203125 21.117188 A 1.1802207 1.1802207 0 0 1 5.2285156 20.095703 L 5.2285156 11.949219 A 1.1802207 1.1802207 0 0 1 5.2285156 11.886719 A 1.1802207 1.1802207 0 0 1 5.234375 11.792969 A 1.1802207 1.1802207 0 0 1 5.2363281 11.751953 A 1.1802207 1.1802207 0 0 1 5.2519531 11.658203 A 1.1802207 1.1802207 0 0 1 5.2753906 11.550781 A 1.1802207 1.1802207 0 0 1 5.28125 11.535156 A 1.1802207 1.1802207 0 0 1 5.3105469 11.455078 A 1.1802207 1.1802207 0 0 1 5.328125 11.414062 A 1.1802207 1.1802207 0 0 1 5.3710938 11.328125 A 1.1802207 1.1802207 0 0 1 5.4296875 11.230469 A 1.1802207 1.1802207 0 0 1 5.4355469 11.220703 A 1.1802207 1.1802207 0 0 1 5.5039062 11.132812 A 1.1802207 1.1802207 0 0 1 5.5722656 11.056641 A 1.1802207 1.1802207 0 0 1 5.6035156 11.027344 A 1.1802207 1.1802207 0 0 1 5.640625 10.994141 A 1.1802207 1.1802207 0 0 1 5.7089844 10.9375 A 1.1802207 1.1802207 0 0 1 5.7304688 10.923828 A 1.1802207 1.1802207 0 0 1 5.796875 10.882812 A 1.1802207 1.1802207 0 0 1 5.8183594 10.867188 L 15.394531 5.3359375 A 1.1802207 1.1802207 0 0 1 16.013672 5.1777344 z M 14.806641 8.4023438 L 8.7695312 11.888672 L 16.013672 16.072266 L 23.232422 11.904297 L 17.166016 8.4023438 L 17.166016 13.882812 L 17.945312 14.332031 L 16.001953 15.453125 L 14.046875 14.322266 L 14.806641 13.882812 L 14.806641 8.4023438 z M 7.5898438 13.931641 L 7.5898438 19.414062 L 14.835938 23.597656 L 14.835938 18.113281 L 7.5898438 13.931641 z M 24.412109 13.947266 L 22.732422 14.916016 L 17.195312 18.113281 L 17.195312 23.597656 L 24.412109 19.431641 L 24.412109 13.947266 z M 10.605469 16.308594 L 12.966797 17.671875 L 9.296875 19.791016 L 8.1191406 19.109375 L 8.1191406 17.746094 L 10.605469 16.308594 z M 21.384766 16.320312 L 23.859375 17.75 L 23.859375 19.125 L 22.693359 19.798828 L 19.023438 17.683594 L 21.384766 16.320312 z "
       transform="matrix(0.26458333,0,0,0.26458333,90.638691,139.6863)"
       id="path2549" />
  </g>
  <g
     inkscape:groupmode="layer"
     id="layer2"
     inkscape:label="Layer 2">
    <g
       transform="matrix(0.0684453,0,0,0.0684453,-3.2979299,-7.7298498)"
       id="g3221"
       style="display:inline;opacity:0.98999999;fill:#dcdcdc;fill-opacity:1;fill-rule:nonzero;stroke:#371da9;stroke-width:9;stroke-linecap:butt;stroke-linejoin:round;stroke-miterlimit:4;stroke-dasharray:none;stroke-dashoffset:0;stroke-opacity:1" />
    <g
       transform="matrix(0.05059809,0,0,0.05059809,9.9059521,-7.9601077)"
       style="display:inline;opacity:1;fill:#37c6a9;fill-opacity:1;fill-rule:nonzero;stroke:#371da9;stroke-width:9;stroke-linecap:butt;stroke-linejoin:round;stroke-miterlimit:4;stroke-dasharray:none;stroke-dashoffset:0;stroke-opacity:1"
       id="g3247" />
  </g>
</svg>
